{"title":"Wrath.of.the.Titans.2012.BRRIP.720P.H264-ZEKTORM","uid":7377344,"size":3053673874,"categoryP":"video","categoryS":"hd___movies","magnet":"?xt=urn:btih:a671cc6aec98d7279fc44ac942d3b429bf499cd2&amp;dn=Wrath.of.the.Titans.2012.BRRIP.720P.H264-ZEKTORM&amp;tr=udp%3A%2F%2Ftracker.openbittorrent.com%3A80&amp;tr=udp%3A%2F%2Fopen.demonii.com%3A1337&amp;tr=udp%3A%2F%2Ftracker.coppersurfer.tk%3A6969&amp;tr=udp%3A%2F%2Fexodus.desync.com%3A6969","seeders":1,"leechers":0,"uploader":"blowley","files":4,"time":1340395694,"description":"Title                            : Wrath of the Titans\nYear                             : 2012\nGenre                            : Action | Adventure | Fantasy\niMDB URL                         : http://www.imdb.com/title/tt1646987/\n\nComplete name                    : Wrath.of.the.Titans.2012.BRRIP.720P.H264-ZEKTORM.mp4\nFormat                           : MPEG-4\nFormat profile                   : Base Media\nCodec ID                         : isom\nFile size                        : 2.84 GiB\nDuration                         : 1h 39mn\nOverall bit rate                 : 4090 Kbps\nSubtitles                        : English (Format: srt)\n\nVideo\nID                               : 1\nFormat                           : AVC\nFormat/Info                      : Advanced Video Codec\nFormat profile                   : &lt;a class=&quot;__cf_email__&quot; href=&quot;/cdn-cgi/l/email-protection&quot; data-cfemail=&quot;4d05242a250d0179637d&quot;&gt;[email&amp;#160;protected]&lt;/a&gt;&lt;script cf-hash='f9e31' type=&quot;text/javascript&quot;&gt;\n/* &lt;![CDATA[ */!function(){try{var t=&quot;currentScript&quot;in document?document.currentScript:function(){for(var t=document.getElementsByTagName(&quot;script&quot;),e=t.length;e--;)if(t[e].getAttribute(&quot;cf-hash&quot;))return t[e]}();if(t&amp;&amp;t.previousSibling){var e,r,n,i,c=t.previousSibling,a=c.getAttribute(&quot;data-cfemail&quot;);if(a){for(e=&quot;&quot;,r=parseInt(a.substr(0,2),16),n=2;a.length-n;n+=2)i=parseInt(a.substr(n,2),16)^r,e+=String.fromCharCode(i);e=document.createTextNode(e),c.parentNode.replaceChild(e,c)}}}catch(u){}}();/* ]]&gt; */&lt;/script&gt;\nFormat settings, CABAC           : Yes\nFormat settings, ReFrames        : 9 frames\nCodec ID                         : avc1\nCodec ID/Info                    : Advanced Video Coding\nDuration                         : 1h 39mn\nBit rate mode                    : Variable\nBit rate                         : 3640 Kbps\nWidth                            : 1280 pixels\nHeight                           : 720 pixels\nDisplay aspect ratio             : 16/9\nFrame rate mode                  : Constant\nFrame rate                       : 23.976 fps\nResolution                       : 24 bits\nColorimetry                      : 4:2:0\nScan type                        : Progressive\nBits/(Pixel*Frame)               : 0.165\nStream size                      : 2.53 GiB (89%)\nTitle                            : Video\nWriting library                  : x264\n\nAudio\nID                               : 2\nFormat                           : AAC\nFormat/Info                      : Advanced Audio Codec\nFormat version                   : Version 4\nFormat profile                   : LC\nFormat settings, SBR             : No\nCodec ID                         : 40\nDuration                         : 1h 39mn\nBit rate mode                    : Variable\nBit rate                         : 446 Kbps\nMaximum bit rate                 : 553 Kbps\nChannel(s)                       : 6 channels\nChannel positions                : Front: L C R, Rear: L R, LFE\nSampling rate                    : 48.0 KHz\nResolution                       : 16 bits\nStream size                      : 317 MiB (11%)\nLanguage                         : English\n\n\nScreenshots:\n\n[img]http://img543.imageshack.us/img543/9961/snapwott1.png[/img]\n\n[img]http://img507.imageshack.us/img507/8138/snapwott2.png[/img]\n","torrent":{"xt":"urn:btih:a671cc6aec98d7279fc44ac942d3b429bf499cd2","amp;dn":"Wrath.of.the.Titans.2012.BRRIP.720P.H264-ZEKTORM","amp;tr":["udp%3A%2F%2Ftracker.openbittorrent.com%3A80","udp%3A%2F%2Fopen.demonii.com%3A1337","udp%3A%2F%2Ftracker.coppersurfer.tk%3A6969","udp%3A%2F%2Fexodus.desync.com%3A6969"],"infoHash":"a671cc6aec98d7279fc44ac942d3b429bf499cd2","infoHashBuffer":{"type":"Buffer","data":[166,113,204,106,236,152,215,39,159,196,74,201,66,211,180,41,191,73,156,210]},"announce":[],"urlList":[]}}